<svg xmlns="http://www.w3.org/2000/svg" xmlns:xlink="http://www.w3.org/1999/xlink" version="1.1" width="256" height="256" viewBox="0 0 256 256" xml:space="preserve">

<defs>
</defs>
<g style="stroke: none; stroke-width: 0; stroke-dasharray: none; stroke-linecap: butt; stroke-linejoin: miter; stroke-miterlimit: 10; fill: none; fill-rule: nonzero; opacity: 1;" transform="translate(1.4065934065934016 1.4065934065934016) scale(2.81 2.81)" >
	<path d="M 42.116 13.163 h -7.343 h -6.432 h -6.783 h -7.343 H 7.783 H 1 c -0.552 0 -1 0.448 -1 1 v 20.558 v 20.559 v 20.558 c 0 0.553 0.448 1 1 1 h 20.558 h 20.558 c 0.552 0 1 -0.447 1 -1 V 55.279 V 34.721 V 14.163 C 43.116 13.61 42.668 13.163 42.116 13.163 z M 29.341 56.279 h 4.432 v 6.524 h -4.432 V 56.279 z M 34.773 54.279 h -6.432 h -5.783 V 35.721 h 4.783 v 7.525 c 0 0.552 0.448 1 1 1 h 6.432 c 0.552 0 1 -0.448 1 -1 v -7.525 h 5.343 v 18.559 H 34.773 z M 8.783 56.279 h 4.432 v 6.524 H 8.783 V 56.279 z M 14.215 54.279 H 7.783 H 2 V 35.721 h 4.783 v 7.525 c 0 0.552 0.448 1 1 1 h 6.432 c 0.552 0 1 -0.448 1 -1 v -7.525 h 5.343 v 18.559 H 14.215 z M 8.783 35.721 h 4.432 v 6.525 H 8.783 V 35.721 z M 29.341 35.721 h 4.432 v 6.525 h -4.432 V 35.721 z M 41.116 33.721 h -6.343 h -6.432 h -5.783 V 15.163 h 4.783 v 7.525 c 0 0.552 0.448 1 1 1 h 6.432 c 0.552 0 1 -0.448 1 -1 v -7.525 h 5.343 V 33.721 z M 33.773 15.163 v 6.525 h -4.432 v -6.525 H 33.773 z M 13.215 15.163 v 6.525 H 8.783 v -6.525 H 13.215 z M 2 15.163 h 4.783 v 7.525 c 0 0.552 0.448 1 1 1 h 6.432 c 0.552 0 1 -0.448 1 -1 v -7.525 h 5.343 v 18.558 h -6.343 H 7.783 H 2 V 15.163 z M 2 56.279 h 4.783 v 7.524 c 0 0.553 0.448 1 1 1 h 6.432 c 0.552 0 1 -0.447 1 -1 v -7.524 h 5.343 v 18.558 H 2 V 56.279 z M 41.116 74.837 H 22.558 V 56.279 h 4.783 v 7.524 c 0 0.553 0.448 1 1 1 h 6.432 c 0.552 0 1 -0.447 1 -1 v -7.524 h 5.343 V 74.837 z" style="stroke: none; stroke-width: 1; stroke-dasharray: none; stroke-linecap: butt; stroke-linejoin: miter; stroke-miterlimit: 10; fill: rgb(0,0,0); fill-rule: nonzero; opacity: 1;" transform=" matrix(1 0 0 1 0 0) " stroke-linecap="round" />
	<path d="M 89.348 24.032 L 57.541 12.225 c -0.249 -0.092 -0.526 -0.082 -0.77 0.031 l -7.588 3.533 c -0.501 0.233 -0.718 0.828 -0.484 1.329 c 0.232 0.5 0.825 0.718 1.328 0.485 l 7.21 -3.356 L 88 25.665 v 49.172 h -8.266 V 47.882 v -8.005 v -8.004 c 0 -0.552 -0.447 -1 -1 -1 H 49.605 c -0.553 0 -1 0.448 -1 1 s 0.447 1 1 1 h 28.129 v 6.004 H 49.605 c -0.553 0 -1 0.448 -1 1 s 0.447 1 1 1 h 28.129 v 6.005 H 49.605 c -0.553 0 -1 0.447 -1 1 s 0.447 1 1 1 h 28.129 v 26.955 c 0 0.553 0.447 1 1 1 H 89 c 0.553 0 1 -0.447 1 -1 V 24.969 C 90 24.551 89.74 24.177 89.348 24.032 z" style="stroke: none; stroke-width: 1; stroke-dasharray: none; stroke-linecap: butt; stroke-linejoin: miter; stroke-miterlimit: 10; fill: rgb(0,0,0); fill-rule: nonzero; opacity: 1;" transform=" matrix(1 0 0 1 0 0) " stroke-linecap="round" />
</g>
</svg>