<?xml version="1.0" standalone="no"?>
<!DOCTYPE svg PUBLIC "-//W3C//DTD SVG 20010904//EN"
 "http://www.w3.org/TR/2001/REC-SVG-20010904/DTD/svg10.dtd">
<svg version="1.0" xmlns="http://www.w3.org/2000/svg"
 width="200.000000pt" height="200.000000pt" viewBox="0 0 200.000000 200.000000"
 preserveAspectRatio="xMidYMid meet">

<g transform="translate(0.000000,200.000000) scale(0.100000,-0.100000)"
fill="#000000" stroke="none">
<path d="M380 1830 c-188 -99 -337 -184 -352 -201 l-28 -29 0 -514 0 -515 26
-20 c26 -21 37 -21 465 -21 l438 0 6 -37 c35 -235 152 -387 353 -460 416 -151
830 263 679 679 -73 201 -225 318 -459 353 l-38 6 0 257 c0 234 -2 260 -19
288 -15 25 -83 65 -347 203 -182 96 -345 175 -364 177 -30 4 -81 -20 -360
-166z m692 -69 l323 -170 3 -265 c2 -209 0 -266 -10 -266 -7 0 -23 -3 -35 -6
l-23 -6 0 223 c0 193 -2 225 -17 241 -15 17 -46 18 -577 18 -309 0 -566 -4
-572 -8 -32 -21 -34 -53 -34 -486 l0 -436 -30 0 -30 0 2 496 3 496 320 169
c176 93 327 168 337 169 9 0 162 -76 340 -169z m196 -328 l3 -33 -535 0 -536
0 0 35 0 35 533 -2 532 -3 3 -32z m2 -133 l0 -30 -535 0 -535 0 0 30 0 30 535
0 535 0 0 -30z m0 -184 l0 -85 -60 -32 c-122 -65 -230 -207 -261 -344 -12 -53
-13 -55 -45 -55 l-32 0 -4 115 c-4 151 -2 149 -153 153 l-115 4 0 107 c0 154
3 151 -162 151 -108 0 -135 -3 -150 -17 -16 -15 -18 -37 -18 -265 l0 -248 -35
0 -35 0 0 300 0 300 535 0 535 0 0 -84z m-870 -91 c0 -33 5 -47 16 -52 28 -11
49 11 52 56 3 38 5 41 33 41 l29 0 0 -100 0 -100 -100 0 -100 0 0 93 c0 52 3
97 7 100 3 4 19 7 35 7 27 0 28 -2 28 -45z m1162 -36 c82 -17 154 -56 222
-119 107 -100 152 -212 144 -359 -6 -104 -32 -177 -92 -259 -135 -183 -408
-236 -609 -119 -60 35 -150 135 -180 199 -85 183 -50 387 92 529 114 114 268
160 423 128z m-1160 -230 c6 -79 68 -76 68 2 0 37 2 39 30 39 l30 0 0 -100 0
-100 -100 0 -100 0 0 100 0 100 34 0 c34 0 35 -1 38 -41z m270 -6 c3 -44 5
-48 28 -48 23 0 25 4 28 48 3 46 4 47 38 47 l34 0 0 -100 0 -100 -100 0 -100
0 0 100 0 100 34 0 c34 0 35 -1 38 -47z"/>
<path d="M599 1771 c-38 -39 -40 -97 -5 -138 23 -27 29 -28 121 -31 110 -4
149 7 170 49 19 35 19 63 1 98 -21 40 -56 51 -162 51 -92 0 -97 -1 -125 -29z
m226 -71 c0 -25 -2 -25 -86 -28 -91 -3 -116 7 -103 42 5 14 20 16 98 14 90 -3
91 -3 91 -28z"/>
<path d="M1327 906 c-114 -47 -174 -104 -225 -213 -66 -143 -22 -383 71 -383
30 0 517 487 517 517 0 87 -224 136 -363 79z m241 -58 c23 -6 44 -14 47 -18 2
-3 -30 -40 -70 -80 l-75 -74 0 97 0 97 28 -5 c15 -4 46 -11 70 -17z m-168
-118 l0 -130 -35 0 -35 0 0 119 0 119 28 10 c15 6 30 11 35 11 4 1 7 -57 7
-129z m-130 -30 l0 -100 -66 0 c-73 0 -71 -3 -39 77 12 27 90 123 101 123 2 0
4 -45 4 -100z m-20 -245 c-40 -40 -77 -72 -80 -70 -7 4 -21 54 -35 118 l-5 27
97 0 97 0 -74 -75z"/>
<path d="M1492 507 c-232 -233 -243 -245 -240 -278 3 -29 9 -37 48 -56 230
-115 515 37 560 298 14 78 2 159 -33 229 -19 39 -27 45 -57 48 -34 3 -45 -8
-278 -241z m294 116 c33 -114 0 -237 -86 -323 -86 -86 -209 -119 -323 -86 -31
9 -57 20 -57 24 0 9 433 442 442 442 4 0 15 -26 24 -57z"/>
</g>
</svg>
